<svg width="189" height="44" viewBox="0 0 189 44" fill="none" xmlns="http://www.w3.org/2000/svg">
<path d="M0 15C0 6.71573 6.71573 0 15 0L174 0C182.284 0 189 6.71573 189 15V29C189 37.2843 182.284 44 174 44H15C6.71573 44 0 37.2843 0 29L0 15Z" fill="#052F83"/>
<path d="M68.585 29V15.9091H77.4061V18.1911H71.3528V21.3104H76.9522V23.5923H71.3528V26.718H77.4316V29H68.585ZM82.2784 23.3239V29H79.5554V19.1818H82.1506V20.9141H82.2656C82.483 20.343 82.8473 19.8913 83.3587 19.5589C83.87 19.2223 84.4901 19.054 85.2188 19.054C85.9006 19.054 86.495 19.2031 87.0021 19.5014C87.5092 19.7997 87.9034 20.2259 88.1847 20.7798C88.4659 21.3295 88.6065 21.9858 88.6065 22.7486V29H85.8835V23.2344C85.8878 22.6335 85.7344 22.1648 85.4233 21.8281C85.1122 21.4872 84.6839 21.3168 84.1385 21.3168C83.772 21.3168 83.4482 21.3956 83.1669 21.5533C82.8899 21.7109 82.6726 21.9411 82.5149 22.2436C82.3615 22.5419 82.2827 22.902 82.2784 23.3239ZM95.975 19.1818V21.2273H90.0623V19.1818H95.975ZM91.4047 16.8295H94.1277V25.983C94.1277 26.2344 94.166 26.4304 94.2427 26.571C94.3194 26.7074 94.426 26.8033 94.5623 26.8587C94.7029 26.9141 94.8649 26.9418 95.0481 26.9418C95.176 26.9418 95.3038 26.9311 95.4316 26.9098C95.5595 26.8842 95.6575 26.8651 95.7257 26.8523L96.1539 28.8786C96.0176 28.9212 95.8258 28.9702 95.5787 29.0256C95.3315 29.0852 95.0311 29.1214 94.6774 29.1342C94.0211 29.1598 93.4458 29.0724 92.9515 28.8722C92.4615 28.6719 92.0801 28.3608 91.8074 27.9389C91.5346 27.517 91.4004 26.9844 91.4047 26.3409V16.8295ZM97.7488 29V19.1818H100.389V20.8949H100.491C100.67 20.2855 100.97 19.8253 101.392 19.5142C101.814 19.1989 102.3 19.0412 102.85 19.0412C102.986 19.0412 103.133 19.0497 103.291 19.0668C103.448 19.0838 103.587 19.1072 103.706 19.1371V21.5533C103.578 21.5149 103.401 21.4808 103.176 21.451C102.95 21.4212 102.743 21.4062 102.556 21.4062C102.155 21.4062 101.797 21.4936 101.482 21.6683C101.171 21.8388 100.923 22.0774 100.74 22.3842C100.561 22.6911 100.472 23.0447 100.472 23.4453V29H97.7488ZM107.632 29.1854C107.006 29.1854 106.448 29.0767 105.958 28.8594C105.468 28.6378 105.08 28.3118 104.794 27.8814C104.513 27.4467 104.373 26.9055 104.373 26.2578C104.373 25.7124 104.473 25.2543 104.673 24.8835C104.873 24.5128 105.146 24.2145 105.491 23.9886C105.836 23.7628 106.228 23.5923 106.667 23.4773C107.11 23.3622 107.575 23.2812 108.061 23.2344C108.632 23.1747 109.092 23.1193 109.441 23.0682C109.791 23.0128 110.044 22.9318 110.202 22.8253C110.36 22.7187 110.439 22.5611 110.439 22.3523V22.3139C110.439 21.9091 110.311 21.5959 110.055 21.3743C109.804 21.1527 109.446 21.0419 108.981 21.0419C108.491 21.0419 108.101 21.1506 107.811 21.3679C107.522 21.581 107.33 21.8494 107.236 22.1733L104.718 21.9688C104.846 21.3722 105.097 20.8565 105.472 20.4219C105.847 19.983 106.331 19.6463 106.923 19.4119C107.52 19.1733 108.21 19.054 108.994 19.054C109.539 19.054 110.061 19.1179 110.56 19.2457C111.063 19.3736 111.508 19.5717 111.896 19.8402C112.288 20.1087 112.597 20.4538 112.823 20.8757C113.049 21.2933 113.162 21.794 113.162 22.3778V29H110.579V27.6385H110.502C110.345 27.9453 110.134 28.2159 109.87 28.4503C109.605 28.6804 109.288 28.8615 108.917 28.9936C108.547 29.1214 108.118 29.1854 107.632 29.1854ZM108.412 27.3061C108.813 27.3061 109.167 27.2273 109.473 27.0696C109.78 26.9077 110.021 26.6903 110.196 26.4176C110.37 26.1449 110.458 25.8359 110.458 25.4908V24.4489C110.373 24.5043 110.255 24.5554 110.106 24.6023C109.961 24.6449 109.797 24.6854 109.614 24.7237C109.431 24.7578 109.248 24.7898 109.064 24.8196C108.881 24.8452 108.715 24.8686 108.566 24.8899C108.246 24.9368 107.967 25.0114 107.728 25.1136C107.49 25.2159 107.304 25.3544 107.172 25.5291C107.04 25.6996 106.974 25.9126 106.974 26.1683C106.974 26.5391 107.108 26.8224 107.377 27.0185C107.65 27.2102 107.995 27.3061 108.412 27.3061ZM115.274 29V19.1818H117.914V20.8949H118.016C118.195 20.2855 118.496 19.8253 118.918 19.5142C119.339 19.1989 119.825 19.0412 120.375 19.0412C120.511 19.0412 120.658 19.0497 120.816 19.0668C120.974 19.0838 121.112 19.1072 121.232 19.1371V21.5533C121.104 21.5149 120.927 21.4808 120.701 21.451C120.475 21.4212 120.268 21.4062 120.081 21.4062C119.68 21.4062 119.322 21.4936 119.007 21.6683C118.696 21.8388 118.449 22.0774 118.266 22.3842C118.087 22.6911 117.997 23.0447 117.997 23.4453V29H115.274Z" fill="white"/>
</svg>
